:SAMPLES-PER-SECOND 30
:FULLY-SPECIFIED
:DEGREES
555
root  -54.8207 39.0804 3.28013 -18.227 -82.8354 12.0281
RightUpLeg  -11.6508 -13.9193 -12.3577
RightLeg  9.87202 11.5951 2.33131
RightFoot  9.00156 -1.41872 8.2334
RightToes  -5.8209e-011 0 -3.6325e-017
Spine  9.63671 -2.80006 4.65379
Spine1  12.3106 -2.34191 0.311926
HEad  -29.9744 -6.53056 -3.22249
LeftShoulder1  1.31814 -0.36737 -27.9373
LeftArm  1.7203 -9.78661 -41.8054
LeftForeArm  16.6068 -11.412 -9.09531
LeftHand  0.0565315 7.23427 5.75277
RightShoulder  0.181424 -2.90412 25.5227
RightArm  3.6299 3.12797 38.8249
RightForeArm  -9.88221 -5.38703 3.88736
RightHand  -0.620812 4.1723 -7.78735
LeftUpLeg  3.45054 -5.47643 6.31702
LeftLeg  25.8886 -9.7889 -4.81284
LeftFoot  -18.2544 -0.264767 -6.18446
LeftToes  -8.31281e-010 4.41007e-011 3.74621e-011
556
root  -53.9957 38.9269 3.96388 -27.7881 -83.2557 21.0501
RightUpLeg  -11.4113 -14.3723 -13.9413
RightLeg  7.30271 13.125 1.44096
RightFoot  11.1004 -1.97119 10.2845
RightToes  -5.8209e-011 0 -3.6325e-017
Spine  10.2736 -2.70788 2.72053
Spine1  12.5458 -2.23595 -0.728151
HEad  -30.922 -4.81238 -1.82542
LeftShoulder1  1.16526 0.1056 -28.1776
LeftArm  -0.888832 -5.32511 -42.2465
LeftForeArm  23.0311 -6.15975 -10.3716
LeftHand  0.059581 8.67413 3.47622
RightShoulder  -0.0838985 -3.72513 27.489
RightArm  2.41484 -3.54966 37.8911
RightForeArm  -13.4024 -3.1825 3.15433
RightHand  -0.709409 4.3275 -8.74244
LeftUpLeg  3.22485 -4.14621 3.73616
LeftLeg  25.7934 -7.65581 -3.6816
LeftFoot  -19.3166 -0.0738087 -2.68362
LeftToes  -8.31281e-010 4.41007e-011 3.74621e-011
557
root  -53.1145 38.7725 4.59986 -42.7722 -83.1182 35.6385
RightUpLeg  -11.197 -14.976 -15.9684
RightLeg  4.26997 14.1715 0.0134513
RightFoot  12.1208 -2.62424 13.0259
RightToes  -5.8209e-011 0 -3.6325e-017
Spine  10.8228 -2.4457 -1.28216
Spine1  13.0755 -2.62342 0.00577859
HEad  -32.596 -3.24038 -0.916778
LeftShoulder1  0.983779 0.724841 -29.3737
LeftArm  -1.80691 -0.559211 -42.1973
LeftForeArm  27.7293 -2.67676 -10.344
LeftHand  0.0320512 9.00584 2.44322
RightShoulder  -0.326771 -4.4246 28.3871
RightArm  0.747768 -9.55267 38.0361
RightForeArm  -15.3032 -0.387003 2.35298
RightHand  -0.638765 4.43719 -7.81133
LeftUpLeg  2.44412 -3.30881 0.647787
LeftLeg  26.109 -6.15607 -2.94011
LeftFoot  -19.7319 0.0771266 -0.561423
LeftToes  -8.31281e-010 4.41007e-011 3.74621e-011
558
root  -52.2405 38.6477 5.18256 -50.2364 -83.0083 42.9472
RightUpLeg  -11.2545 -15.0457 -17.0559
RightLeg  1.93275 12.7862 -1.38005
RightFoot  10.6259 -2.63874 13.854
RightToes  -5.8209e-011 0 -3.6325e-017
Spine  11.3515 -2.26761 -4.37026
Spine1  12.8419 -3.16132 1.31573
HEad  -33.8679 -2.18499 -1.16187
LeftShoulder1  0.692215 1.66951 -31.6492
LeftArm  -1.49436 4.21413 -40.8706
LeftForeArm  31.515 -0.637084 -10.4078
LeftHand  -0.0198479 9.61485 0.857529
RightShoulder  -0.412687 -4.69172 27.7648
RightArm  0.143916 -15.743 39.5274
RightForeArm  -16.2496 2.08579 2.14279
RightHand  -0.604065 4.51573 -7.33007
LeftUpLeg  0.857998 -2.3902 -1.06999
LeftLeg  27.1898 -6.05457 -3.0293
LeftFoot  -19.8783 0.154304 0.485423
LeftToes  -8.31281e-010 4.41007e-011 3.74621e-011
559
root  -51.3764 38.6712 5.77887 -51.5818 -83.3422 44.3985
RightUpLeg  -11.2188 -15.624 -17.6225
RightLeg  0.1677 8.47715 -1.39378
RightFoot  7.23459 -1.8758 11.7965
RightToes  -5.8209e-011 0 -3.6325e-017
Spine  11.3918 -2.38513 -4.67296
Spine1  12.6604 -3.22557 1.12832
HEad  -34.4 -1.27278 -1.63557
LeftShoulder1  0.422406 2.43355 -33.3045
LeftArm  -2.07758 9.28258 -39.551
LeftForeArm  34.4646 -0.0773842 -9.92755
LeftHand  -0.222735 11.0842 -2.85242
RightShoulder  -0.497347 -4.93311 27.8794
RightArm  0.8792 -20.7585 40.9665
RightForeArm  -17.8645 3.2602 2.54847
RightHand  -0.785243 5.4204 -8.75367
LeftUpLeg  -1.19431 -2.03515 -2.07928
LeftLeg  28.3001 -5.48843 -2.85319
LeftFoot  -18.8883 0.208946 1.43954
LeftToes  -8.31281e-010 4.41007e-011 3.74621e-011
560
root  -50.6042 38.7789 6.2814 -52.4238 -84.2231 45.5568
RightUpLeg  -10.785 -16.2756 -17.6397
RightLeg  -0.698236 -0.560532 -0.199681
RightFoot  3.97122 -1.71062 12.8697
RightToes  -5.8209e-011 0 -3.6325e-017
Spine  11.0052 -2.48993 -3.21978
Spine1  12.2345 -2.58437 -1.06885
HEad  -33.9282 -1.75508 -2.81472
LeftShoulder1  0.158924 3.10516 -33.6476
LeftArm  -2.48365 14.6785 -38.7959
LeftForeArm  36.1904 -1.15598 -9.52985
LeftHand  -0.470213 12.3925 -6.37447
RightShoulder  -0.667629 -5.38186 28.8708
RightArm  2.44409 -24.0589 42.057
RightForeArm  -15.2592 3.36594 3.07345
RightHand  -0.705497 4.448 -8.47094
LeftUpLeg  -2.82829 -2.42786 -2.61292
LeftLeg  28.3293 -4.2541 -2.13749
LeftFoot  -17.6128 0.205176 1.82369
LeftToes  -8.31281e-010 4.41007e-011 3.74621e-011
